<?xml version="1.0" encoding="utf-8"?>
<!-- Generator: Adobe Illustrator 24.3.0, SVG Export Plug-In . SVG Version: 6.00 Build 0)  -->
<svg version="1.1" id="Layer_1" xmlns="http://www.w3.org/2000/svg" xmlns:xlink="http://www.w3.org/1999/xlink" x="0px" y="0px"
	 viewBox="0 0 351.59 115.65" style="enable-background:new 0 0 351.59 115.65;" xml:space="preserve">
<style type="text/css">
	.st0{fill:#207EA9;}
	.st1{fill:#9B9B9B;}
	.st2{fill:#A59E95;}
	.st3{fill:#C6C6C6;}
	.st4{fill:#686868;}
</style>
<g>
	<rect x="6.494" y="26.422" class="st0" width="11.869" height="63.928"/>
	<path class="st0" d="M38.054,43.724c0-6.604-0.135-12.02-0.539-17.303h10.386l0.539,10.302h0.405
		c3.642-6.076,9.711-11.755,20.502-11.755c8.902,0,15.647,5.284,18.479,12.812h0.27c2.023-3.566,4.586-6.34,7.284-8.321
		c3.912-2.906,8.228-4.491,14.432-4.491c8.633,0,21.447,5.547,21.447,27.738V90.35h-11.6V54.159c0-12.284-4.586-19.68-14.163-19.68
		c-6.744,0-12.005,4.887-14.028,10.567c-0.54,1.585-0.945,3.698-0.945,5.812V90.35h-11.6V52.045c0-10.17-4.586-17.567-13.623-17.567
		c-7.418,0-12.814,5.812-14.702,11.623c-0.675,1.717-0.944,3.698-0.944,5.68V90.35h-11.6V43.724z"/>
	<path class="st0" d="M197.076,86.722c-3.102,1.555-9.981,3.628-18.749,3.628c-19.693,0-32.507-12.828-32.507-32.004
		c0-19.306,13.758-33.3,35.07-33.3c7.014,0,13.218,1.684,16.456,3.239l-2.698,8.811c-2.832-1.555-7.283-2.98-13.757-2.98
		c-14.972,0-23.066,10.625-23.066,23.712c0,14.512,9.712,23.452,22.661,23.452c6.743,0,11.195-1.684,14.567-3.11L197.076,86.722z"/>
</g>
<g>
	<path class="st1" d="M10.347,0.643c0.266-0.283,0.377-0.4,1.021-0.558C11.648,0.049,12.024,0.013,12.307,0
		c-0.146,0.011-0.34,0.041-0.48,0.085C11.377,0.224,11.151,0.294,10.347,0.643"/>
	<path class="st1" d="M7.96,1.863c0.246-0.479,0.348-0.677,0.958-1.097c0.826-0.29,1.24-0.436,2.166-0.631
		c-0.512,0.174-0.724,0.246-1.013,0.632C9.28,1.145,8.921,1.319,7.96,1.863"/>
	<path class="st1" d="M5.274,3.623C5.499,2.977,5.592,2.71,6.17,2.061c0.849-0.465,1.275-0.698,2.398-1.16
		c-0.484,0.387-0.684,0.547-0.95,1.161C6.684,2.635,6.265,2.896,5.274,3.623"/>
	<path class="st1" d="M2.779,5.836C2.98,5.052,3.063,4.727,3.614,3.884C4.343,3.27,4.709,2.961,5.817,2.27
		C5.36,2.841,5.17,3.078,4.93,3.886C4.027,4.618,3.626,4.95,2.779,5.836"/>
	<path class="st1" d="M0.946,8.417C1.122,7.523,1.194,7.153,1.729,6.15c0.502-0.789,0.71-1.115,1.594-1.995
		C2.886,4.883,2.706,5.184,2.495,6.152C1.794,7.005,1.504,7.358,0.946,8.417"/>
	<path class="st1" d="M0.202,10.922c0.025-0.245,0.057-0.487,0.096-0.727c0.105-0.642,0.26-1.268,0.461-1.872
		c0.177-0.532,0.39-1.048,0.636-1.545C1.072,7.524,0.893,7.936,0.779,8.775C0.466,9.59,0.294,10.039,0.202,10.922"/>
	<path class="st1" d="M11.982,0.046C12.079,0.027,12.208,0.004,12.307,0C12.209,0.01,12.079,0.026,11.982,0.046"/>
	<path class="st1" d="M0.99,16.647c-0.083-0.208-0.16-0.42-0.231-0.633c-0.201-0.604-0.356-1.23-0.461-1.872
		c-0.091-0.559-0.144-1.13-0.156-1.711c0.066,0.873,0.1,1.312,0.402,2.177C0.629,15.411,0.676,15.853,0.99,16.647"/>
	<path class="st1" d="M10.321,1.851c-0.138-0.451-0.207-0.677-0.043-1.093c0.594-0.276,0.92-0.428,1.476-0.626
		c-0.119,0.167-0.173,0.243,0.037,0.627C11.386,1.071,11.25,1.176,10.321,1.851"/>
	<path class="st1" d="M7.959,3.606c-0.14-0.61-0.21-0.917-0.062-1.558c0.752-0.44,1.166-0.682,2.106-1.156
		C9.897,1.253,9.844,1.434,10.048,2.05C9.179,2.684,8.819,2.947,7.959,3.606"/>
	<path class="st1" d="M5.321,5.816C5.169,5.072,5.093,4.699,5.219,3.867c0.81-0.604,1.217-0.907,2.338-1.611
		c-0.093,0.533-0.14,0.8,0.066,1.612C6.639,4.656,6.252,4.971,5.321,5.816"/>
	<path class="st1" d="M2.899,8.394C2.723,7.545,2.635,7.119,2.732,6.129c0.702-0.733,1.054-1.101,2.143-1.992
		C4.783,4.962,4.782,5.245,4.984,6.131C4.059,7.041,3.698,7.405,2.899,8.394"/>
	<path class="st1" d="M1.172,11.257c-0.228-0.986-0.322-1.395-0.262-2.508c0.481-0.892,0.68-1.261,1.539-2.299
		C2.386,7.42,2.394,7.748,2.626,8.752C1.957,9.709,1.68,10.106,1.172,11.257"/>
	<path class="st1" d="M0.535,14.234c-0.283-0.984-0.4-1.391-0.385-2.588c0-0.003,0-0.005,0-0.008
		c0.096-0.978,0.135-1.383,0.594-2.527c-0.026,1.081-0.003,1.444,0.278,2.534C0.705,12.655,0.575,13.073,0.535,14.234"/>
	<path class="st1" d="M12.443,0.044C12.402,0.029,12.349,0.007,12.307,0C12.349,0.008,12.412,0.014,12.443,0.044"/>
	<path class="st1" d="M11.946,0.635c-0.147-0.273-0.215-0.398-0.037-0.553C12.027,0.051,12.186,0.015,12.307,0l0,0
		c0.044,0.025,0.102,0.058,0.146,0.082C12.393,0.228,12.373,0.277,11.946,0.635"/>
	<path class="st1" d="M2.711,19.42c-0.641-0.759-0.934-1.105-1.422-2.081c-0.009-0.02-0.019-0.04-0.028-0.06
		c-0.341-0.849-0.497-1.236-0.589-2.329c0.417,0.914,0.589,1.292,1.385,2.361C2.186,18.151,2.239,18.499,2.711,19.42"/>
	<path class="st1" d="M11.487,3.589c-0.54-0.653-0.763-0.923-1.086-1.554c0.889-0.675,1.067-0.815,1.473-1.152
		c0.268,0.333,0.402,0.501,1.111,1.153C12.555,2.538,12.394,2.726,11.487,3.589"/>
	<path class="st1" d="M9.096,5.796C8.573,4.999,8.357,4.669,8.039,3.85c0.689-0.541,0.974-0.764,2.088-1.607
		c0.273,0.525,0.41,0.789,1.08,1.609C10.505,4.501,9.798,5.146,9.096,5.796"/>
	<path class="st1" d="M6.471,8.372c-0.508-0.885-0.739-1.29-1.067-2.263C6.177,5.401,6.566,5.045,7.703,4.12
		c0.27,0.668,0.405,1.004,1.055,1.991C7.681,7.131,7.316,7.486,6.471,8.372"/>
	<path class="st1" d="M4.122,11.232C3.59,10.263,3.348,9.82,2.991,8.726c0.67-0.825,1.006-1.239,2.077-2.296
		C5.346,7.214,5.486,7.608,6.14,8.728C5.232,9.752,4.879,10.16,4.122,11.232"/>
	<path class="st1" d="M2.537,14.21c-0.594-0.987-0.84-1.395-1.257-2.593c0.413-0.91,0.62-1.367,1.44-2.53
		c0.304,0.875,0.457,1.314,1.144,2.532C3.283,12.578,2.992,13.059,2.537,14.21"/>
	<path class="st1" d="M2.036,16.973c-0.64-0.906-0.905-1.281-1.374-2.392c0.052-0.96,0.073-1.357,0.47-2.574
		c0.37,0.985,0.524,1.392,1.275,2.576C2.142,15.531,2.032,15.923,2.036,16.973"/>
	<path class="st1" d="M12.844,0.041C12.683,0.026,12.468,0.004,12.307,0C12.468,0.009,12.684,0.018,12.844,0.041"/>
	<path class="st1" d="M13.622,0.627c-0.453-0.238-0.727-0.382-1.096-0.548c-0.056-0.043-0.15-0.07-0.22-0.079
		c0.213,0.014,0.497,0.046,0.708,0.079C13.378,0.22,13.529,0.278,13.622,0.627"/>
	<path class="st1" d="M13.138,1.838c-0.561-0.5-0.793-0.707-1.108-1.089c0.33-0.308,0.467-0.436,0.507-0.622
		c0.361,0.201,0.559,0.312,1.094,0.622C13.572,1.105,13.548,1.251,13.138,1.838"/>
	<path class="st1" d="M5.073,21.449c-0.891-0.647-1.286-0.943-2.108-1.76c-0.374-0.757-0.529-1.071-0.661-2.071
		c0.663,0.76,0.996,1.142,2.054,2.073C4.511,20.407,4.575,20.704,5.073,21.449"/>
	<path class="st1" d="M13.62,5.775c-0.932-0.916-1.317-1.294-1.918-1.943c0.868-0.851,1.063-1.061,1.496-1.604
		c0.607,0.532,0.657,0.575,1.872,1.605C14.658,4.478,14.45,4.801,13.62,5.775"/>
	<path class="st1" d="M11.183,8.349c-0.873-0.98-1.21-1.365-1.879-2.261c0.706-0.662,1.416-1.321,2.119-1.986
		c0.54,0.593,0.742,0.814,1.921,1.988C12.623,6.874,12.623,6.874,11.183,8.349"/>
	<path class="st1" d="M8.524,11.207C7.669,10.132,7.34,9.709,6.678,8.703C7.422,7.92,7.796,7.528,8.966,6.409
		c0.568,0.761,0.853,1.143,1.871,2.296C9.639,9.952,9.315,10.303,8.524,11.207"/>
	<path class="st1" d="M6.227,14.186c-0.92-1.132-1.205-1.507-1.89-2.594c0.637-0.893,0.956-1.341,2.01-2.529
		c0.564,0.848,0.847,1.274,1.847,2.531C7.428,12.537,7.006,13.056,6.227,14.186"/>
	<path class="st1" d="M4.739,16.951c-0.887-0.967-1.232-1.354-1.97-2.394c0.368-0.892,0.552-1.339,1.313-2.575
		c0.593,0.913,0.89,1.371,1.9,2.577C5.364,15.569,5.13,15.968,4.739,16.951"/>
	<path class="st1" d="M4.326,19.401C3.454,18.6,3.069,18.237,2.28,17.286c0.016-0.869,0.022-1.228,0.36-2.36
		c0.63,0.849,0.946,1.274,1.981,2.362C4.387,18.137,4.29,18.489,4.326,19.401"/>
	<path class="st1" d="M14.98,0.62c-0.757-0.26-1.137-0.391-1.917-0.544C12.838,0.04,12.534,0.01,12.307,0
		c0.336,0.013,0.783,0.042,1.117,0.076C14.13,0.215,14.422,0.272,14.98,0.62"/>
	<path class="st1" d="M15.702,1.825c-0.673-0.407-1.044-0.631-1.868-1.084c-0.1-0.304-0.141-0.43-0.602-0.617
		c0.626,0.161,0.94,0.241,1.908,0.618C15.481,1.097,15.622,1.244,15.702,1.825"/>
	<path class="st1" d="M15.218,3.573c-1.357-1.118-1.383-1.139-1.868-1.55c0.318-0.5,0.449-0.707,0.491-1.147
		c0.803,0.478,1.106,0.663,1.865,1.149C15.645,2.561,15.619,2.784,15.218,3.573"/>
	<path class="st1" d="M7.776,23c-0.949-0.471-1.375-0.688-2.384-1.335c-0.396-0.61-0.56-0.862-0.722-1.711
		c0.799,0.637,1.2,0.957,2.331,1.712C7.176,22.231,7.249,22.464,7.776,23"/>
	<path class="st1" d="M16.187,8.326c-0.712-0.725-1.006-1.025-2.268-2.258c0.702-0.858,0.969-1.195,1.445-1.983
		c1.08,0.926,1.417,1.22,2.251,1.985C17.205,6.831,17,7.213,16.187,8.326"/>
	<path class="st1" d="M13.818,11.182c-0.771-0.841-1.555-1.668-2.332-2.502c1.21-1.247,1.428-1.472,2.158-2.292
		c1.106,1.097,1.44,1.429,2.274,2.295C15.256,9.514,14.954,9.894,13.818,11.182"/>
	<path class="st1" d="M11.111,14.162c-1.2-1.297-1.446-1.581-2.292-2.594c0.736-0.838,1.105-1.259,2.319-2.527
		c0.777,0.845,1.565,1.679,2.337,2.529C12.693,12.44,11.898,13.297,11.111,14.162"/>
	<path class="st1" d="M8.79,16.929c-1.072-1.078-1.435-1.454-2.266-2.397c0.611-0.864,0.917-1.298,1.966-2.576
		c0.734,0.875,1.102,1.314,2.285,2.578C9.792,15.653,9.469,16.034,8.79,16.929"/>
	<path class="st1" d="M7.324,19.382c-0.986-0.863-1.374-1.208-2.283-2.117c0.34-0.806,0.51-1.211,1.237-2.362
		c0.739,0.816,1.11,1.225,2.266,2.364C7.934,18.171,7.703,18.527,7.324,19.382"/>
	<path class="st1" d="M6.961,21.434c-0.942-0.661-1.362-0.961-2.324-1.763c-0.011-0.807-0.001-1.108,0.288-2.074
		c0.765,0.74,1.148,1.111,2.286,2.075C6.993,20.395,6.902,20.694,6.961,21.434"/>
	<path class="st1" d="M17.61,1.813c-0.845-0.438-1.269-0.657-2.328-1.08C14.8,0.431,14.6,0.306,13.737,0.121
		c0.848,0.158,1.273,0.237,2.401,0.613C16.811,1.089,17.089,1.236,17.61,1.813"/>
	<path class="st1" d="M18.271,3.556c-0.798-0.575-1.198-0.864-2.274-1.547c-0.088-0.496-0.124-0.702-0.556-1.143
		c0.891,0.392,1.294,0.574,2.32,1.145C18.079,2.552,18.21,2.776,18.271,3.556"/>
	<path class="st1" d="M17.763,5.755c-0.739-0.659-1.11-0.99-2.251-1.94c0.311-0.666,0.44-0.942,0.49-1.6
		c0.943,0.63,1.317,0.885,2.269,1.602C18.197,4.511,18.167,4.799,17.763,5.755"/>
	<path class="st1" d="M10.357,23.996c-0.779-0.244-1.171-0.366-2.239-0.833c-0.424-0.432-0.6-0.611-0.792-1.273
		c0.768,0.477,1.191,0.739,2.189,1.274C9.712,23.547,9.794,23.705,10.357,23.996"/>
	<path class="st1" d="M18.663,11.185c-0.702-0.871-1.055-1.308-2.177-2.503c0.693-0.977,0.958-1.363,1.436-2.293
		c0.968,0.937,1.346,1.311,2.209,2.295C19.705,9.538,19.491,9.967,18.663,11.185"/>
	<path class="st1" d="M16.293,14.164c-0.616-0.768-1.103-1.375-2.177-2.594c1.055-1.217,1.376-1.596,2.098-2.527
		c0.967,1.052,1.344,1.47,2.174,2.53C17.684,12.521,17.362,12.954,16.293,14.164"/>
	<path class="st1" d="M13.654,16.932c-0.72-0.797-0.72-0.797-2.24-2.397c1.686-1.817,1.686-1.817,2.359-2.576
		c1.169,1.338,1.475,1.699,2.182,2.578C15.224,15.322,14.89,15.68,13.654,16.932"/>
	<path class="st1" d="M11.288,19.384C9.47,17.637,9.47,17.637,9.09,17.267c0.608-0.777,0.912-1.167,1.986-2.362
		c1.763,1.839,1.763,1.839,2.244,2.364C12.113,18.489,11.896,18.709,11.288,19.384"/>
	<path class="st1" d="M9.799,21.435c-0.948-0.756-1.302-1.038-2.167-1.763c0.328-0.697,0.493-1.047,1.213-2.073
		c0.444,0.424,0.444,0.424,2.191,2.075C10.46,20.383,10.197,20.707,9.799,21.435"/>
	<path class="st1" d="M9.467,23.001c-0.844-0.485-1.224-0.707-2.184-1.335c-0.035-0.649-0.033-0.894,0.237-1.71
		c0.706,0.573,1.061,0.86,2.167,1.712C9.476,22.235,9.388,22.47,9.467,23.001"/>
	<path class="st1" d="M20.281,3.558c-0.792-0.591-1.19-0.887-2.328-1.547c-0.448-0.495-0.633-0.699-1.455-1.144
		c0.901,0.364,1.354,0.546,2.387,1.145C19.529,2.557,19.795,2.783,20.281,3.558"/>
	<path class="st1" d="M20.863,5.757c-0.76-0.711-1.141-1.067-2.268-1.94c-0.067-0.661-0.095-0.935-0.494-1.601
		c0.946,0.584,1.367,0.851,2.32,1.602C20.712,4.52,20.832,4.81,20.863,5.757"/>
	<path class="st1" d="M20.287,8.328c-0.728-0.803-1.093-1.206-2.215-2.258c0.32-0.805,0.452-1.139,0.521-1.984
		c0.975,0.788,1.359,1.106,2.261,1.985C20.756,6.895,20.715,7.236,20.287,8.328"/>
	<path class="st1" d="M12.307,24.335L12.307,24.335c-0.543-0.029-0.791-0.042-1.683-0.267c-0.447-0.23-0.632-0.325-0.84-0.772
		c0.637,0.321,0.988,0.498,1.646,0.772C11.633,24.239,11.726,24.317,12.307,24.335"/>
	<path class="st1" d="M20.605,14.113c-0.48-0.866-0.77-1.389-1.649-2.597c0.705-1.064,0.974-1.485,1.469-2.523
		c0.808,1.022,1.119,1.432,1.74,2.525C21.685,12.482,21.465,12.921,20.605,14.113"/>
	<path class="st1" d="M18.184,16.885c-0.474-0.81-0.711-1.217-1.599-2.4c1.002-1.138,1.338-1.54,2.096-2.578
		c0.769,1.087,1.064,1.517,1.638,2.581C19.629,15.335,19.282,15.761,18.184,16.885"/>
	<path class="st1" d="M15.568,19.343c-0.475-0.706-0.714-1.061-1.615-2.122c1.088-1.093,1.439-1.448,2.295-2.366
		c0.756,1.012,1.046,1.41,1.597,2.368C17.104,17.94,16.732,18.3,15.568,19.343"/>
	<path class="st1" d="M13.258,21.403c-0.543-0.635-0.724-0.84-1.672-1.77c0.638-0.678,0.753-0.8,2.034-2.079
		c0.771,0.9,1.066,1.254,1.621,2.081C13.76,20.947,13.76,20.947,13.258,21.403"/>
	<path class="st1" d="M11.724,22.978c-0.469-0.397-0.644-0.546-1.644-1.343c0.358-0.599,0.505-0.847,1.251-1.717
		c0.975,0.942,1.169,1.136,1.674,1.719C12.226,22.381,12.058,22.556,11.724,22.978"/>
	<path class="st1" d="M11.38,23.984c-0.576-0.276-0.842-0.405-1.642-0.842C9.694,22.677,9.694,22.5,9.967,21.86
		c0.926,0.712,1.146,0.881,1.641,1.282C11.386,23.53,11.295,23.69,11.38,23.984"/>
	<path class="st1" d="M21.509,4.209c0.573,0.741,0.607,0.786,0.974,1.507c-0.639-0.765-0.904-1.081-1.911-1.934
		c-0.426-0.655-0.602-0.926-1.398-1.594c0.842,0.575,0.893,0.609,1.542,1.188C20.994,3.641,21.258,3.919,21.509,4.209"/>
	<path class="st1" d="M23.003,8.28c-0.576-0.82-0.864-1.232-1.846-2.253c-0.048-0.796-0.068-1.126-0.444-1.978
		c0.827,0.739,1.191,1.075,1.904,1.98C22.889,6.859,23.002,7.203,23.003,8.28"/>
	<path class="st1" d="M22.335,11.133c-0.536-0.895-0.806-1.344-1.754-2.5c0.336-0.914,0.476-1.292,0.567-2.287
		c0.803,0.874,1.156,1.269,1.836,2.289C22.857,9.558,22.805,9.94,22.335,11.133"/>
	<path class="st2" d="M12.307,24.335c-0.363-0.026-0.563-0.04-0.709-0.203C11.957,24.262,12.154,24.333,12.307,24.335"/>
	<path class="st1" d="M21.601,16.838c-0.178-0.83-0.267-1.246-0.802-2.404c0.742-1.041,1.027-1.458,1.568-2.581
		c0.465,1.017,0.658,1.438,0.898,2.583C22.763,15.305,22.511,15.741,21.601,16.838"/>
	<path class="st1" d="M19.114,19.303c-0.165-0.768-0.233-1.086-0.739-2.128c0.946-0.967,1.315-1.353,2.139-2.371
		c0.42,0.947,0.594,1.339,0.791,2.373C20.583,17.947,20.221,18.333,19.114,19.303"/>
	<path class="st1" d="M16.475,21.371c-0.154-0.627-0.217-0.887-0.718-1.777c1.068-0.944,1.431-1.272,2.278-2.085
		c0.399,0.845,0.564,1.194,0.734,2.086C17.984,20.237,17.589,20.56,16.475,21.371"/>
	<path class="st1" d="M14.175,22.955c-0.152-0.458-0.215-0.647-0.728-1.351c0.366-0.322,0.366-0.322,1.983-1.725
		c0.396,0.714,0.561,1.009,0.718,1.726C15.48,22.073,15.146,22.308,14.175,22.955"/>
	<path class="st1" d="M12.662,23.972c-0.161-0.266-0.215-0.356-0.755-0.852c0.332-0.379,0.498-0.569,1.287-1.29
		c0.407,0.554,0.576,0.783,0.731,1.291C13.133,23.647,12.99,23.741,12.662,23.972"/>
	<path class="st1" d="M12.303,24.335c-0.155-0.031-0.233-0.047-0.754-0.278c-0.05-0.267-0.034-0.371,0.239-0.781
		c0.438,0.385,0.602,0.529,0.755,0.782c-0.254,0.199-0.254,0.199-0.27,0.27C12.283,24.33,12.294,24.333,12.303,24.335"/>
	<path class="st1" d="M23.479,7.342c-0.423-0.83-0.44-0.863-0.789-1.359c-0.402-0.771-0.418-0.801-0.752-1.251
		C22.554,5.529,23.073,6.405,23.479,7.342"/>
	<path class="st1" d="M24.096,9.153c0.178,0.982,0.185,1.021,0.164,1.927c-0.278-0.962-0.394-1.36-1.049-2.495
		c-0.023-0.903-0.033-1.277-0.387-2.283c0.553,0.863,0.586,0.915,0.928,1.729C23.884,8.397,23.999,8.771,24.096,9.153"/>
	<path class="st1" d="M23.454,14.061c-0.226-0.955-0.329-1.391-0.917-2.598c0.373-0.995,0.528-1.407,0.653-2.52
		c0.52,0.959,0.735,1.356,1.035,2.522C24.058,12.464,23.989,12.876,23.454,14.061"/>
	<path class="st1" d="M21.495,19.242c0.196-0.781,0.277-1.104,0.191-2.136c0.745-0.91,1.071-1.321,1.663-2.378
		c0.079,0.939,0.112,1.328-0.125,2.38C22.696,17.893,22.431,18.287,21.495,19.242"/>
	<path class="st1" d="M18.944,21.321c0.219-0.638,0.31-0.902,0.254-1.788c0.957-0.834,1.332-1.17,2.192-2.093
		c0.046,0.839,0.065,1.187-0.2,2.095C20.441,20.202,20.065,20.537,18.944,21.321"/>
	<path class="st1" d="M16.251,22.92c0.241-0.467,0.34-0.66,0.302-1.364c0.967-0.689,1.35-0.967,2.301-1.735
		c0.023,0.711,0.032,1.006-0.26,1.736C17.763,22.084,17.347,22.348,16.251,22.92"/>
	<path class="st1" d="M13.903,23.953c0.259-0.267,0.367-0.378,0.337-0.866c0.878-0.559,1.187-0.76,1.984-1.303
		c0.008,0.555,0.012,0.785-0.307,1.304C15.171,23.441,14.76,23.636,13.903,23.953"/>
	<path class="st1" d="M12.345,24.335c0.268-0.038,0.39-0.056,0.363-0.294c0.426-0.266,0.854-0.53,1.28-0.796
		c0.001,0.37,0.001,0.524-0.341,0.796C13.059,24.221,12.791,24.304,12.345,24.335"/>
	<path class="st2" d="M12.307,24.335c0.001-0.007,0.001-0.015,0.002-0.022c0.111-0.088,0.111-0.088,0.279-0.196
		c-0.001,0.034-0.001,0.08-0.002,0.115c-0.025,0.022-0.051,0.061-0.082,0.073C12.448,24.326,12.367,24.334,12.307,24.335"/>
	<path class="st1" d="M24.473,12.168c0,0.271-0.009,0.541-0.026,0.808c-0.005-0.972-0.005-1.01-0.108-1.592
		c0.005-0.954,0.005-0.991-0.089-1.548C24.396,10.591,24.473,11.37,24.473,12.168"/>
	<path class="st1" d="M24.15,14.963c-0.295,0.955-0.306,0.993-0.727,1.804c0.171-0.895,0.242-1.265,0.113-2.411
		c0.423-0.983,0.598-1.39,0.768-2.585c0.128,1.042,0.133,1.082,0.067,1.971C24.318,14.156,24.244,14.564,24.15,14.963"/>
	<path class="st1" d="M21.651,19.96c-0.683,0.738-0.696,0.752-1.443,1.363c0.562-0.643,0.795-0.91,1.169-1.787
		c0.768-0.782,1.086-1.105,1.743-2.093c-0.33,0.871-0.343,0.905-0.813,1.657C22.101,19.396,21.882,19.683,21.651,19.96"/>
	<path class="st1" d="M17.586,22.921c0.584-0.47,0.826-0.664,1.229-1.364c0.932-0.64,1.346-0.932,2.255-1.735
		c-0.336,0.706-0.475,0.999-1.175,1.736C19.116,22.091,18.725,22.359,17.586,22.921"/>
	<path class="st1" d="M14.814,23.953c0.613-0.268,0.867-0.379,1.3-0.866c0.917-0.46,1.33-0.672,2.348-1.302
		c-0.36,0.552-0.509,0.781-1.237,1.303C16.353,23.457,15.915,23.642,14.814,23.953"/>
	<path class="st1" d="M12.385,24.335c0.627-0.038,0.913-0.055,1.379-0.294c0.68-0.23,1.021-0.346,2.016-0.795
		c-0.386,0.369-0.546,0.522-1.31,0.796C13.655,24.216,13.246,24.304,12.385,24.335"/>
	<path class="st2" d="M12.307,24.335c0.371-0.026,0.576-0.041,1.201-0.217C13.134,24.259,12.947,24.33,12.307,24.335"/>
	<path class="st1" d="M22.706,18.486c0.416-0.79,0.441-0.837,0.615-1.378c0.437-0.851,0.464-0.902,0.65-1.472
		C23.671,16.647,23.243,17.603,22.706,18.486"/>
</g>
<g>
	<g>
		<path class="st3" d="M221.619,114.936c-1.076,0-2.154-0.383-3.016-1.16c-1.844-1.666-1.988-4.512-0.323-6.356l34.439-38.131
			l-34.562-36.873c-1.699-1.813-1.607-4.661,0.206-6.36c1.814-1.701,4.662-1.606,6.36,0.206l37.393,39.894
			c1.601,1.707,1.625,4.356,0.057,6.094l-37.214,41.204C224.071,114.436,222.847,114.936,221.619,114.936z"/>
	</g>
	<g>
		<path class="st1" d="M268.934,114.936c-1.076,0-2.154-0.383-3.016-1.16c-1.844-1.666-1.988-4.512-0.323-6.356l34.439-38.131
			l-34.562-36.873c-1.699-1.813-1.607-4.661,0.206-6.361c1.814-1.7,4.662-1.606,6.36,0.206l37.394,39.894
			c1.601,1.707,1.625,4.356,0.057,6.094l-37.215,41.204C271.387,114.436,270.163,114.936,268.934,114.936z"/>
	</g>
	<g>
		<path class="st4" d="M309.848,114.936c-1.076,0-2.154-0.383-3.016-1.16c-1.844-1.666-1.988-4.512-0.323-6.356l34.439-38.131
			l-34.561-36.873c-1.699-1.813-1.607-4.661,0.206-6.361c1.814-1.7,4.661-1.606,6.36,0.206l37.394,39.894
			c1.601,1.707,1.625,4.356,0.057,6.094l-37.215,41.204C312.3,114.436,311.076,114.936,309.848,114.936z"/>
	</g>
</g>
</svg>
